<?xml version="1.0" encoding="utf-8"?>
<!-- Generator: Adobe Illustrator 26.2.1, SVG Export Plug-In . SVG Version: 6.00 Build 0)  -->
<svg version="1.1" id="Layer_1" xmlns="http://www.w3.org/2000/svg" xmlns:xlink="http://www.w3.org/1999/xlink" x="0px" y="0px"
	 viewBox="0 0 276 243" style="enable-background:new 0 0 276 243;" xml:space="preserve">
<style type="text/css">
	.st0{fill:#282828;}
	.st1{fill:#282828;stroke:#FFFFFF;stroke-width:0.75;stroke-linecap:round;stroke-linejoin:round;stroke-miterlimit:10;}
</style>
<path class="st0" d="M173.69,17.21c-1.04-1.19-2.23-2.29-3.51-3.34c-1.13-0.93-2.32-1.8-3.57-2.58c-8.39-5.37-19.79-8.04-34.21-8.04
	c-40.08,0-63.35,18.11-69.79,54.32l-8.79,49.39c-1.02,5.6-1.51,10.82-1.51,15.67c0,11.32,2.73,20.14,8.15,26.44
	c6.3,7.11,16.66,11.35,31.05,12.77c3.57,0.35,7.37,0.52,11.46,0.52c20.95,0,37.17-4.64,48.67-13.99c0.23-0.17,0.44-0.35,0.67-0.52
	c0.23-0.2,0.49-0.44,0.73-0.64l-11.64-18.66l-3.95-6.3c-1.31,0.38-2.55,0.55-3.74,0.52c-2.44-0.09-4.27-1.02-5.48-2.81
	c-2.55,3.66-5.92,6.21-10.04,7.66c-2.73,0.96-5.78,1.45-9.17,1.45c-11.32,0-16.98-4.7-16.98-14.16c0-3.57,0.35-7.23,1.07-10.94
	l7.52-43.38c2.73-16.05,11.32-24.06,25.77-24.06c3.37,0,6.21,0.61,8.53,1.89c1.33,0.7,2.5,1.6,3.48,2.73
	c2.73,3.08,4.09,7.28,4.09,12.57c0,10.01-2.38,14.86-7.08,20.28h33.11c3.02,0,5.8-1.65,7.25-4.3c1.57-2.7,3.19-6.91,4.82-12.57
	c1.66-5.66,2.5-8.44,2.5-14.16C183.09,32.5,179.96,23.91,173.69,17.21z"/>
<path class="st0" d="M148.77,72.75c0.53,3.41,0.88,6.35,1.47,9.24c1.43,7.03,3.9,9.36,11,10.61c0.76,0.13,1.51,0.26,2.29,0.78
	c-1.66,0.45-3.31,0.96-4.99,1.35c-4.39,1.04-7.03,3.72-7.84,8.18c-0.64,3.52-1.3,7.04-2.07,11.26c-0.36-2.41-0.62-4.22-0.89-6.02
	c-0.03-0.18-0.07-0.35-0.1-0.53c-1.76-10.42-3.48-12.18-14.57-14.24c2.31-0.57,3.96-0.97,5.61-1.38c4.3-1.07,7.14-3.57,7.96-8.09
	C147.29,80.32,148.01,76.74,148.77,72.75z"/>
<path class="st1" d="M263.89,70.62c-1.53,2.8-3.15,5.41-4.91,8.06c-4.35,6.56-9.36,12.67-13.98,18.94
	c-4.22,5.72-8.52,11.44-13.88,16.2c-0.32,0.29-0.65,0.57-0.98,0.86c-2.24,1.94-4.55,3.8-6.84,5.68c-3.66,2.99-7.62,5.6-11.83,7.75
	c-9.81,5.02-18.57,8.68-26.32,11c5.78-13.52,11.06-27.02,15.79-40.42c4.73-13.44,9.72-26.47,15.03-39.06
	c4.76-11.46,9.08-20.87,12.91-28.18c3.83-7.28,9.2-13.15,16.08-17.59l-19.12-0.61c-6.5-0.23-11.11,2.21-13.84,7.2
	c-4.93,9.37-10.68,19.59-17.18,30.64c-6.53,11.06-13.26,21.74-20.2,32.1c-6.97,10.33-13.81,19.24-20.58,26.67
	c-6.44,6.91-12.07,11.06-16.86,12.42c-1.31,0.38-2.55,0.55-3.74,0.52c-2.44-0.09-4.27-1.02-5.48-2.81c-1.33-1.97-1.94-4.93-1.8-8.94
	c0.09-3.25,0.78-7.05,2.09-11.43c1.31-4.35,3.34-9.17,6.06-14.42c1.97-3.8,3.89-7.52,5.77-11.17c3.54-6.88,6.94-13.49,10.19-19.85
	c4.96-9.69,10.77-19.79,17.38-30.27c1.83-2.84,3.74-5.08,5.78-6.67c0.41-0.35,0.81-0.64,1.25-0.93c2.5-1.68,4.58-3.16,6.24-4.5
	l-14.57-0.49l-6.99-0.23c-6.27-0.17-10.77,2.23-13.49,7.25c-2.7,5.02-5.92,10.77-9.61,17.27c-0.52,0.93-1.07,1.89-1.6,2.84
	c-3.16,5.63-6.36,11.46-9.52,17.53c-1.02,2.29-2.12,4.47-3.34,6.53c-1.25,2.03-2.35,3.98-3.34,5.8c-0.49,0.9-0.76,1.83-0.78,2.76
	c-0.03,0.93,0.35,1.65,1.16,2.12c0.78,0.49,1.54,0.75,2.23,0.78c-2.73,5.25-5.63,10.68-8.71,16.25c-3.1,5.6-4.73,11.4-4.93,17.44
	c-0.2,6.27,0.99,11.03,3.54,14.25c2.03,2.5,4.32,4.41,6.94,5.75c0.73,0.38,1.48,0.7,2.26,0.99c3.54,1.28,6.62,1.94,9.17,2.03
	c4,0.15,7.92-0.55,11.78-2.09c2.61-1.04,5.19-2.44,7.75-4.24c6.3-4.44,12.22-10.07,17.79-16.86c5.57-6.76,10.62-13.76,15.15-20.92
	c4.53-7.17,8.27-13.26,11.2-18.28c-2.03,5.98-4.73,13.61-8.04,22.93c-3.34,9.29-6.99,18.8-11.03,28.56
	c-4.03,9.75-8.39,18.37-13.03,25.89c-2.93,0.75-5.89,1.51-8.88,2.23c-11.58,2.84-23.53,5.43-35.87,7.81
	c-8.85,1.71-17.15,3.74-24.93,6.18c-15.6,4.77-31.25,11.44-42.41,23.77c-7.8,8.62-15.3,21.07-13.49,33.18
	c2.96,19.87,27.22,22.42,43.29,20.63c21.29-2.37,40.27-14.6,55.27-29.35c9.23-9.11,17.56-18.95,25.02-29.51
	c7.4-10.56,14.07-20.75,19.97-30.53c12.68-4.24,23.16-8.47,31.43-12.74c5.81-3,11.29-6.64,16.31-10.84c5-4.17,9.55-8.88,13.6-13.97
	c4.7-5.89,8.68-12.29,12.16-18.96c3.17-6.08,5.99-12.32,9.13-18.41C262.3,73.61,263.08,72.1,263.89,70.62z M149.64,163.78
	c-5.66,9.05-13,17.1-20.26,24.88c-6.62,7.11-13.87,14.07-21.76,20.89c-12.92,11.26-29.5,23.13-47.35,23.41
	c-4,0.06-8.13-0.81-11.36-3.16c-9.76-7.1-6.66-18.75-1.01-27.48c14.62-22.59,41.14-30.69,66.03-36.55
	c6.84-1.61,13.69-3.17,20.53-4.75c3.37-0.78,6.75-1.56,10.12-2.33c1.58-0.36,3.16-0.73,4.74-1.09c1.34-0.31,3.17-0.68,4.41-0.78
	C152.42,159.14,151.07,161.48,149.64,163.78z"/>
</svg>
